<svg width="50" height="50" viewBox="0 0 50 50" xmlns="http://www.w3.org/2000/svg">
<path d="M49.9999 25C49.9999 31.6304 47.366 37.9893 42.6775 42.6777C37.9891 47.3661 31.6303 50 24.9999 50C18.3695 50 12.0106 47.3661 7.32221 42.6777C2.6338 37.9893 -0.00012207 31.6304 -0.00012207 25C-0.00012207 18.3696 2.6338 12.0107 7.32221 7.32233C12.0106 2.63392 18.3695 0 24.9999 0C31.6303 0 37.9891 2.63392 42.6775 7.32233C47.366 12.0107 49.9999 18.3696 49.9999 25ZM25.8968 18.4563C23.4655 19.4688 18.603 21.5625 11.3155 24.7375C10.1343 25.2062 9.51238 25.6687 9.45613 26.1187C9.36238 26.8781 10.3155 27.1781 11.6124 27.5875L12.1593 27.7594C13.4343 28.175 15.153 28.6594 16.0436 28.6781C16.8561 28.6969 17.7593 28.3656 18.7561 27.6781C25.5655 23.0813 29.0811 20.7594 29.2999 20.7094C29.4561 20.6719 29.6749 20.6281 29.8186 20.7594C29.9655 20.8875 29.9499 21.1344 29.9343 21.2C29.8405 21.6031 26.0999 25.0781 24.1655 26.8781C23.5624 27.4406 23.1343 27.8375 23.0468 27.9281C22.8541 28.125 22.6582 28.3188 22.4593 28.5094C21.2718 29.6531 20.3843 30.5094 22.5061 31.9094C23.528 32.5844 24.3468 33.1375 25.1624 33.6937C26.0499 34.3 26.9374 34.9031 28.0874 35.6594C28.378 35.8469 28.6593 36.05 28.9311 36.2437C29.9655 36.9812 30.8999 37.6437 32.0468 37.5375C32.7155 37.475 33.4061 36.85 33.7561 34.975C34.5843 30.5469 36.2124 20.9562 36.5874 17.0031C36.6103 16.6745 36.5966 16.3444 36.5468 16.0187C36.5173 15.756 36.3902 15.5139 36.1905 15.3406C35.9062 15.1443 35.5672 15.0427 35.2218 15.05C34.2843 15.0656 32.8374 15.5688 25.8968 18.4563Z"/>
</svg>
